<svg width="208" height="153" viewBox="0 0 208 153" fill="none" xmlns="http://www.w3.org/2000/svg">
<rect width="208" height="153" rx="10.9127" fill="white"/>
<g clip-path="url(#clip0_1224_35186)">
<g clip-path="url(#clip1_1224_35186)">
<path d="M27 56.9871V70.9871" stroke="#037FCC" stroke-width="1.70897" stroke-linecap="round" stroke-linejoin="round"/>
<path d="M30.3359 59.9977C28.8178 59.2102 23.9423 58.6143 23.9423 61.3277C23.9423 64.5766 30.0131 63.4277 30.0131 66.2968C30.0131 69.166 26.0677 68.9481 23.3359 68.0162" stroke="#037FCC" stroke-width="1.70897" stroke-linecap="round" stroke-linejoin="round"/>
<path d="M15.2907 58.0521C16.7435 55.1827 19.1989 52.9464 22.1911 51.7674C25.1834 50.5883 28.5043 50.5486 31.5239 51.6557C34.5435 52.7627 37.0517 54.9397 38.5727 57.7734C40.0937 60.6072 40.5217 63.9006 39.7754 67.029C39.0292 70.1574 37.1607 72.9031 34.5243 74.7451C31.8879 76.5872 28.6672 77.3975 25.473 77.0224C22.2788 76.6473 19.3334 75.1128 17.1955 72.71C15.0577 70.3072 13.8761 67.2034 13.875 63.9872" stroke="#037FCC" stroke-width="1.70897" stroke-linecap="round" stroke-linejoin="round"/>
<path d="M16.1641 51.0544L15.2891 58.0544L22.2891 57.1794" stroke="#037FCC" stroke-width="1.70897" stroke-linecap="round" stroke-linejoin="round"/>
</g>
</g>
<path d="M24.648 98.288C24.7013 98.3733 24.7493 98.4907 24.792 98.64C24.8453 98.7787 24.872 98.9333 24.872 99.104C24.872 99.392 24.8027 99.6107 24.664 99.76C24.536 99.9093 24.36 99.984 24.136 99.984H20.28V102.528H24.104C24.1573 102.613 24.2053 102.725 24.248 102.864C24.3013 103.003 24.328 103.157 24.328 103.328C24.328 103.616 24.2587 103.835 24.12 103.984C23.992 104.123 23.816 104.192 23.592 104.192H20.312V107.984C20.216 108.005 20.0773 108.032 19.896 108.064C19.7253 108.096 19.544 108.112 19.352 108.112C18.9467 108.112 18.6587 108.037 18.488 107.888C18.3173 107.739 18.232 107.488 18.232 107.136V99.392C18.232 99.0507 18.328 98.784 18.52 98.592C18.7227 98.3893 18.9947 98.288 19.336 98.288H24.648ZM33.4488 104.208C33.4488 104.827 33.3528 105.387 33.1608 105.888C32.9794 106.379 32.7181 106.8 32.3768 107.152C32.0354 107.504 31.6248 107.776 31.1448 107.968C30.6648 108.149 30.1261 108.24 29.5288 108.24C28.9314 108.24 28.3928 108.149 27.9128 107.968C27.4328 107.776 27.0221 107.509 26.6808 107.168C26.3394 106.816 26.0728 106.395 25.8808 105.904C25.6994 105.403 25.6088 104.837 25.6088 104.208C25.6088 103.589 25.6994 103.035 25.8808 102.544C26.0728 102.043 26.3394 101.621 26.6808 101.28C27.0328 100.928 27.4488 100.661 27.9288 100.48C28.4088 100.288 28.9421 100.192 29.5288 100.192C30.1154 100.192 30.6488 100.288 31.1288 100.48C31.6088 100.661 32.0194 100.928 32.3608 101.28C32.7128 101.632 32.9794 102.059 33.1608 102.56C33.3528 103.051 33.4488 103.6 33.4488 104.208ZM29.5288 101.792C28.9528 101.792 28.4994 102.005 28.1688 102.432C27.8381 102.848 27.6728 103.44 27.6728 104.208C27.6728 104.987 27.8328 105.584 28.1528 106C28.4834 106.416 28.9421 106.624 29.5288 106.624C30.1154 106.624 30.5688 106.416 30.8888 106C31.2194 105.573 31.3848 104.976 31.3848 104.208C31.3848 103.44 31.2194 102.848 30.8888 102.432C30.5581 102.005 30.1048 101.792 29.5288 101.792ZM37.2298 107.984C37.1444 108.005 37.0164 108.032 36.8458 108.064C36.6858 108.096 36.5098 108.112 36.3178 108.112C35.9338 108.112 35.6511 108.043 35.4698 107.904C35.2991 107.765 35.2138 107.52 35.2138 107.168V97.6C35.2991 97.568 35.4218 97.5413 35.5818 97.52C35.7524 97.488 35.9338 97.472 36.1258 97.472C36.5098 97.472 36.7871 97.5413 36.9578 97.68C37.1391 97.8187 37.2298 98.064 37.2298 98.416V107.984ZM41.4158 107.984C41.3198 108.005 41.1918 108.032 41.0318 108.064C40.8718 108.096 40.6904 108.112 40.4878 108.112C40.1144 108.112 39.8371 108.043 39.6558 107.904C39.4744 107.765 39.3838 107.52 39.3838 107.168V97.6C39.4691 97.568 39.5918 97.5413 39.7518 97.52C39.9224 97.488 40.1091 97.472 40.3118 97.472C40.6851 97.472 40.9624 97.5413 41.1438 97.68C41.3251 97.8187 41.4158 98.064 41.4158 98.416V100.624C41.6504 100.507 41.9171 100.405 42.2158 100.32C42.5251 100.235 42.8664 100.192 43.2398 100.192C44.2104 100.192 44.9838 100.443 45.5598 100.944C46.1358 101.445 46.4237 102.203 46.4237 103.216V107.984C46.3384 108.005 46.2104 108.032 46.0398 108.064C45.8798 108.096 45.7038 108.112 45.5118 108.112C45.1278 108.112 44.8451 108.043 44.6638 107.904C44.4824 107.765 44.3918 107.52 44.3918 107.168V103.312C44.3918 102.779 44.2531 102.395 43.9758 102.16C43.6984 101.915 43.3358 101.792 42.8878 101.792C42.5998 101.792 42.3331 101.84 42.0878 101.936C41.8424 102.021 41.6184 102.128 41.4158 102.256V107.984ZM51.4531 106.704C51.7625 106.704 52.0451 106.677 52.3011 106.624C52.5571 106.56 52.7438 106.485 52.8611 106.4V104.624L51.3091 104.768C50.8825 104.811 50.5571 104.907 50.3331 105.056C50.1091 105.195 49.9971 105.419 49.9971 105.728C49.9971 106.037 50.1091 106.277 50.3331 106.448C50.5678 106.619 50.9411 106.704 51.4531 106.704ZM51.3891 100.192C52.4345 100.192 53.2665 100.416 53.8851 100.864C54.5145 101.312 54.8291 102.005 54.8291 102.944V106.64C54.8291 106.896 54.7651 107.099 54.6371 107.248C54.5091 107.397 54.3491 107.531 54.1571 107.648C53.8585 107.829 53.4798 107.973 53.0211 108.08C52.5625 108.187 52.0398 108.24 51.4531 108.24C50.3865 108.24 49.5438 108.037 48.9251 107.632C48.3171 107.216 48.0131 106.597 48.0131 105.776C48.0131 105.061 48.2371 104.517 48.6851 104.144C49.1438 103.76 49.8051 103.525 50.6691 103.44L52.8611 103.216V102.928C52.8611 102.523 52.7118 102.224 52.4131 102.032C52.1251 101.84 51.7145 101.744 51.1811 101.744C50.7651 101.744 50.3598 101.797 49.9651 101.904C49.5705 102 49.2185 102.123 48.9091 102.272C48.7918 102.187 48.6905 102.075 48.6051 101.936C48.5305 101.787 48.4931 101.627 48.4931 101.456C48.4931 101.243 48.5411 101.072 48.6371 100.944C48.7438 100.805 48.9091 100.683 49.1331 100.576C49.4425 100.448 49.7945 100.352 50.1891 100.288C50.5838 100.224 50.9838 100.192 51.3891 100.192ZM67.0476 106.528C67.0476 106.773 66.9943 106.971 66.8876 107.12C66.781 107.269 66.621 107.413 66.4076 107.552C66.141 107.723 65.789 107.877 65.3516 108.016C64.9143 108.165 64.4076 108.24 63.8316 108.24C62.5516 108.24 61.533 107.915 60.7756 107.264C60.029 106.603 59.6556 105.595 59.6556 104.24C59.6556 103.536 59.757 102.933 59.9596 102.432C60.1623 101.92 60.4343 101.499 60.7756 101.168C61.1276 100.837 61.5383 100.592 62.0076 100.432C62.477 100.272 62.9836 100.192 63.5276 100.192C63.8156 100.192 64.0876 100.224 64.3436 100.288C64.5996 100.341 64.829 100.411 65.0316 100.496V97.6C65.117 97.568 65.2396 97.5413 65.3996 97.52C65.5703 97.488 65.7516 97.472 65.9436 97.472C66.3276 97.472 66.605 97.5413 66.7756 97.68C66.957 97.8187 67.0476 98.064 67.0476 98.416V106.528ZM65.0316 102.128C64.8716 102.032 64.685 101.952 64.4716 101.888C64.2583 101.824 64.029 101.792 63.7836 101.792C63.1863 101.792 62.6903 101.984 62.2956 102.368C61.901 102.752 61.7036 103.381 61.7036 104.256C61.7036 105.077 61.8903 105.68 62.2636 106.064C62.6476 106.437 63.165 106.624 63.8156 106.624C64.093 106.624 64.3276 106.592 64.5196 106.528C64.7223 106.464 64.893 106.389 65.0316 106.304V102.128ZM70.7498 105.12C70.8991 105.664 71.1764 106.059 71.5818 106.304C71.9871 106.549 72.4884 106.672 73.0858 106.672C73.5338 106.672 73.9444 106.608 74.3178 106.48C74.7018 106.341 75.0111 106.197 75.2458 106.048C75.3951 106.133 75.5178 106.251 75.6138 106.4C75.7098 106.549 75.7578 106.709 75.7578 106.88C75.7578 107.093 75.6831 107.285 75.5338 107.456C75.3951 107.616 75.1978 107.755 74.9418 107.872C74.6964 107.989 74.4031 108.08 74.0618 108.144C73.7204 108.208 73.3524 108.24 72.9578 108.24C72.3284 108.24 71.7524 108.155 71.2298 107.984C70.7178 107.813 70.2751 107.557 69.9018 107.216C69.5391 106.864 69.2511 106.432 69.0378 105.92C68.8351 105.408 68.7338 104.811 68.7338 104.128C68.7338 103.467 68.8351 102.891 69.0378 102.4C69.2404 101.909 69.5124 101.499 69.8538 101.168C70.2058 100.837 70.6111 100.592 71.0698 100.432C71.5284 100.272 72.0138 100.192 72.5258 100.192C73.0484 100.192 73.5284 100.277 73.9658 100.448C74.4031 100.608 74.7764 100.837 75.0858 101.136C75.3951 101.424 75.6351 101.776 75.8058 102.192C75.9871 102.597 76.0778 103.04 76.0778 103.52C76.0778 103.819 75.9978 104.043 75.8378 104.192C75.6884 104.341 75.4751 104.437 75.1978 104.48L70.7498 105.12ZM72.5258 101.712C72.0031 101.712 71.5658 101.888 71.2138 102.24C70.8618 102.581 70.6644 103.072 70.6218 103.712L74.1738 103.184C74.1311 102.789 73.9764 102.448 73.7098 102.16C73.4431 101.861 73.0484 101.712 72.5258 101.712ZM84.4518 108.224C84.1424 108.224 83.8544 108.192 83.5878 108.128C83.3318 108.075 83.0971 108.005 82.8838 107.92V110.864C82.7878 110.885 82.6598 110.912 82.4998 110.944C82.3398 110.976 82.1584 110.992 81.9557 110.992C81.5824 110.992 81.3051 110.923 81.1238 110.784C80.9424 110.645 80.8518 110.4 80.8518 110.048V101.936C80.8518 101.68 80.8998 101.472 80.9958 101.312C81.1024 101.152 81.2678 101.003 81.4918 100.864C81.8011 100.683 82.1851 100.528 82.6438 100.4C83.1024 100.261 83.6198 100.192 84.1958 100.192C84.7824 100.192 85.3211 100.272 85.8118 100.432C86.3131 100.581 86.7451 100.821 87.1078 101.152C87.4704 101.472 87.7531 101.883 87.9558 102.384C88.1584 102.885 88.2598 103.483 88.2598 104.176C88.2598 104.848 88.1638 105.435 87.9718 105.936C87.7798 106.437 87.5131 106.859 87.1718 107.2C86.8411 107.541 86.4411 107.797 85.9718 107.968C85.5131 108.139 85.0064 108.224 84.4518 108.224ZM84.1478 106.608C84.7878 106.608 85.2891 106.411 85.6518 106.016C86.0144 105.621 86.1958 105.008 86.1958 104.176C86.1958 103.312 86.0091 102.699 85.6358 102.336C85.2624 101.973 84.7824 101.792 84.1958 101.792C83.9078 101.792 83.6518 101.829 83.4278 101.904C83.2144 101.979 83.0278 102.059 82.8678 102.144V106.256C83.0384 106.363 83.2251 106.448 83.4278 106.512C83.6411 106.576 83.8811 106.608 84.1478 106.608ZM92.9375 106.704C93.2468 106.704 93.5295 106.677 93.7855 106.624C94.0415 106.56 94.2282 106.485 94.3455 106.4V104.624L92.7935 104.768C92.3668 104.811 92.0415 104.907 91.8175 105.056C91.5935 105.195 91.4815 105.419 91.4815 105.728C91.4815 106.037 91.5935 106.277 91.8175 106.448C92.0522 106.619 92.4255 106.704 92.9375 106.704ZM92.8735 100.192C93.9188 100.192 94.7508 100.416 95.3695 100.864C95.9988 101.312 96.3135 102.005 96.3135 102.944V106.64C96.3135 106.896 96.2495 107.099 96.1215 107.248C95.9935 107.397 95.8335 107.531 95.6415 107.648C95.3428 107.829 94.9642 107.973 94.5055 108.08C94.0468 108.187 93.5242 108.24 92.9375 108.24C91.8708 108.24 91.0282 108.037 90.4095 107.632C89.8015 107.216 89.4975 106.597 89.4975 105.776C89.4975 105.061 89.7215 104.517 90.1695 104.144C90.6282 103.76 91.2895 103.525 92.1535 103.44L94.3455 103.216V102.928C94.3455 102.523 94.1962 102.224 93.8975 102.032C93.6095 101.84 93.1988 101.744 92.6655 101.744C92.2495 101.744 91.8442 101.797 91.4495 101.904C91.0548 102 90.7028 102.123 90.3935 102.272C90.2762 102.187 90.1748 102.075 90.0895 101.936C90.0148 101.787 89.9775 101.627 89.9775 101.456C89.9775 101.243 90.0255 101.072 90.1215 100.944C90.2282 100.805 90.3935 100.683 90.6175 100.576C90.9268 100.448 91.2788 100.352 91.6735 100.288C92.0682 100.224 92.4682 100.192 92.8735 100.192ZM103.185 107.344C102.972 107.451 102.721 107.541 102.433 107.616C102.156 107.691 101.83 107.728 101.457 107.728C100.977 107.728 100.524 107.664 100.097 107.536C99.6702 107.397 99.2969 107.179 98.9769 106.88C98.6569 106.581 98.4009 106.197 98.2089 105.728C98.0275 105.248 97.9369 104.667 97.9369 103.984C97.9369 103.365 98.0275 102.821 98.2089 102.352C98.4009 101.872 98.6675 101.472 99.0089 101.152C99.3609 100.832 99.7769 100.592 100.257 100.432C100.737 100.272 101.27 100.192 101.857 100.192C102.412 100.192 102.918 100.261 103.377 100.4C103.846 100.539 104.22 100.699 104.497 100.88C104.689 101.008 104.838 101.152 104.945 101.312C105.062 101.472 105.121 101.675 105.121 101.92V108.096C105.121 108.64 105.02 109.109 104.817 109.504C104.625 109.899 104.358 110.219 104.017 110.464C103.676 110.72 103.276 110.907 102.817 111.024C102.358 111.141 101.862 111.2 101.329 111.2C100.774 111.2 100.289 111.147 99.8729 111.04C99.4675 110.944 99.1635 110.832 98.9609 110.704C98.6089 110.48 98.4329 110.181 98.4329 109.808C98.4329 109.605 98.4755 109.429 98.5609 109.28C98.6462 109.131 98.7475 109.019 98.8649 108.944C99.1422 109.115 99.4782 109.264 99.8729 109.392C100.268 109.52 100.689 109.584 101.137 109.584C101.777 109.584 102.278 109.461 102.641 109.216C103.004 108.971 103.185 108.576 103.185 108.032V107.344ZM101.793 106.16C102.102 106.16 102.364 106.117 102.577 106.032C102.801 105.947 102.993 105.845 103.153 105.728V102.112C103.004 102.027 102.828 101.952 102.625 101.888C102.433 101.824 102.198 101.792 101.921 101.792C101.334 101.792 100.86 101.973 100.497 102.336C100.145 102.688 99.9689 103.237 99.9689 103.984C99.9689 104.389 100.012 104.731 100.097 105.008C100.193 105.285 100.321 105.509 100.481 105.68C100.652 105.851 100.849 105.973 101.073 106.048C101.297 106.123 101.537 106.16 101.793 106.16ZM110.109 106.704C110.419 106.704 110.701 106.677 110.957 106.624C111.213 106.56 111.4 106.485 111.517 106.4V104.624L109.965 104.768C109.539 104.811 109.213 104.907 108.989 105.056C108.765 105.195 108.653 105.419 108.653 105.728C108.653 106.037 108.765 106.277 108.989 106.448C109.224 106.619 109.597 106.704 110.109 106.704ZM110.045 100.192C111.091 100.192 111.923 100.416 112.541 100.864C113.171 101.312 113.485 102.005 113.485 102.944V106.64C113.485 106.896 113.421 107.099 113.293 107.248C113.165 107.397 113.005 107.531 112.813 107.648C112.515 107.829 112.136 107.973 111.677 108.08C111.219 108.187 110.696 108.24 110.109 108.24C109.043 108.24 108.2 108.037 107.581 107.632C106.973 107.216 106.669 106.597 106.669 105.776C106.669 105.061 106.893 104.517 107.341 104.144C107.8 103.76 108.461 103.525 109.325 103.44L111.517 103.216V102.928C111.517 102.523 111.368 102.224 111.069 102.032C110.781 101.84 110.371 101.744 109.837 101.744C109.421 101.744 109.016 101.797 108.621 101.904C108.227 102 107.875 102.123 107.565 102.272C107.448 102.187 107.347 102.075 107.261 101.936C107.187 101.787 107.149 101.627 107.149 101.456C107.149 101.243 107.197 101.072 107.293 100.944C107.4 100.805 107.565 100.683 107.789 100.576C108.099 100.448 108.451 100.352 108.845 100.288C109.24 100.224 109.64 100.192 110.045 100.192ZM126.757 107.984C126.671 108.005 126.543 108.032 126.373 108.064C126.213 108.096 126.037 108.112 125.845 108.112C125.461 108.112 125.178 108.043 124.997 107.904C124.826 107.765 124.741 107.52 124.741 107.168V103.008C124.741 102.581 124.623 102.272 124.389 102.08C124.154 101.888 123.845 101.792 123.461 101.792C123.205 101.792 122.954 101.84 122.709 101.936C122.474 102.032 122.266 102.16 122.085 102.32C122.117 102.469 122.133 102.619 122.133 102.768V107.984C122.047 108.005 121.919 108.032 121.749 108.064C121.589 108.096 121.413 108.112 121.221 108.112C120.837 108.112 120.554 108.043 120.373 107.904C120.202 107.765 120.117 107.52 120.117 107.168V103.008C120.117 102.581 119.994 102.272 119.749 102.08C119.503 101.888 119.189 101.792 118.805 101.792C118.538 101.792 118.293 101.835 118.069 101.92C117.845 102.005 117.658 102.091 117.509 102.176V107.984C117.413 108.005 117.285 108.032 117.125 108.064C116.965 108.096 116.783 108.112 116.581 108.112C116.207 108.112 115.93 108.043 115.749 107.904C115.567 107.765 115.477 107.52 115.477 107.168V102.032C115.477 101.787 115.53 101.584 115.637 101.424C115.743 101.253 115.909 101.093 116.133 100.944C116.453 100.731 116.858 100.555 117.349 100.416C117.839 100.267 118.346 100.192 118.869 100.192C119.839 100.192 120.629 100.453 121.237 100.976C121.546 100.752 121.898 100.565 122.293 100.416C122.698 100.267 123.173 100.192 123.717 100.192C124.133 100.192 124.527 100.245 124.901 100.352C125.274 100.448 125.594 100.608 125.861 100.832C126.138 101.056 126.357 101.344 126.517 101.696C126.677 102.037 126.757 102.448 126.757 102.928V107.984ZM130.437 105.12C130.587 105.664 130.864 106.059 131.269 106.304C131.675 106.549 132.176 106.672 132.773 106.672C133.221 106.672 133.632 106.608 134.005 106.48C134.389 106.341 134.699 106.197 134.933 106.048C135.083 106.133 135.205 106.251 135.301 106.4C135.397 106.549 135.445 106.709 135.445 106.88C135.445 107.093 135.371 107.285 135.221 107.456C135.083 107.616 134.885 107.755 134.629 107.872C134.384 107.989 134.091 108.08 133.749 108.144C133.408 108.208 133.04 108.24 132.645 108.24C132.016 108.24 131.44 108.155 130.917 107.984C130.405 107.813 129.963 107.557 129.589 107.216C129.227 106.864 128.939 106.432 128.725 105.92C128.523 105.408 128.421 104.811 128.421 104.128C128.421 103.467 128.523 102.891 128.725 102.4C128.928 101.909 129.2 101.499 129.541 101.168C129.893 100.837 130.299 100.592 130.757 100.432C131.216 100.272 131.701 100.192 132.213 100.192C132.736 100.192 133.216 100.277 133.653 100.448C134.091 100.608 134.464 100.837 134.773 101.136C135.083 101.424 135.323 101.776 135.493 102.192C135.675 102.597 135.765 103.04 135.765 103.52C135.765 103.819 135.685 104.043 135.525 104.192C135.376 104.341 135.163 104.437 134.885 104.48L130.437 105.12ZM132.213 101.712C131.691 101.712 131.253 101.888 130.901 102.24C130.549 102.581 130.352 103.072 130.309 103.712L133.861 103.184C133.819 102.789 133.664 102.448 133.397 102.16C133.131 101.861 132.736 101.712 132.213 101.712ZM142.36 103.12C142.36 102.661 142.227 102.325 141.96 102.112C141.704 101.899 141.352 101.792 140.904 101.792C140.595 101.792 140.307 101.829 140.04 101.904C139.784 101.979 139.56 102.075 139.368 102.192V107.984C139.272 108.005 139.144 108.032 138.984 108.064C138.824 108.096 138.643 108.112 138.44 108.112C138.067 108.112 137.789 108.043 137.608 107.904C137.427 107.765 137.336 107.52 137.336 107.168V102.032C137.336 101.776 137.389 101.568 137.496 101.408C137.603 101.248 137.768 101.093 137.992 100.944C138.301 100.731 138.712 100.555 139.224 100.416C139.736 100.267 140.301 100.192 140.92 100.192C142.019 100.192 142.867 100.437 143.464 100.928C144.072 101.408 144.376 102.117 144.376 103.056V107.984C144.291 108.005 144.163 108.032 143.992 108.064C143.832 108.096 143.656 108.112 143.464 108.112C143.08 108.112 142.797 108.043 142.616 107.904C142.445 107.765 142.36 107.52 142.36 107.168V103.12ZM148.446 105.648C148.446 105.989 148.548 106.235 148.75 106.384C148.964 106.533 149.257 106.608 149.63 106.608C149.812 106.608 149.993 106.587 150.174 106.544C150.366 106.501 150.537 106.448 150.686 106.384C150.772 106.469 150.841 106.576 150.894 106.704C150.958 106.821 150.99 106.96 150.99 107.12C150.99 107.44 150.846 107.707 150.558 107.92C150.27 108.123 149.806 108.224 149.166 108.224C148.324 108.224 147.657 108.037 147.166 107.664C146.686 107.28 146.446 106.651 146.446 105.776V98.432C146.532 98.4107 146.654 98.384 146.814 98.352C146.985 98.32 147.166 98.304 147.358 98.304C147.732 98.304 148.004 98.3733 148.174 98.512C148.356 98.6507 148.446 98.896 148.446 99.248V100.576H150.798C150.852 100.661 150.9 100.773 150.942 100.912C150.985 101.051 151.006 101.2 151.006 101.36C151.006 101.637 150.942 101.84 150.814 101.968C150.686 102.096 150.516 102.16 150.302 102.16H148.446V105.648ZM159.902 104.208C159.902 104.827 159.806 105.387 159.614 105.888C159.433 106.379 159.171 106.8 158.83 107.152C158.489 107.504 158.078 107.776 157.598 107.968C157.118 108.149 156.579 108.24 155.982 108.24C155.385 108.24 154.846 108.149 154.366 107.968C153.886 107.776 153.475 107.509 153.134 107.168C152.793 106.816 152.526 106.395 152.334 105.904C152.153 105.403 152.062 104.837 152.062 104.208C152.062 103.589 152.153 103.035 152.334 102.544C152.526 102.043 152.793 101.621 153.134 101.28C153.486 100.928 153.902 100.661 154.382 100.48C154.862 100.288 155.395 100.192 155.982 100.192C156.569 100.192 157.102 100.288 157.582 100.48C158.062 100.661 158.473 100.928 158.814 101.28C159.166 101.632 159.433 102.059 159.614 102.56C159.806 103.051 159.902 103.6 159.902 104.208ZM155.982 101.792C155.406 101.792 154.953 102.005 154.622 102.432C154.291 102.848 154.126 103.44 154.126 104.208C154.126 104.987 154.286 105.584 154.606 106C154.937 106.416 155.395 106.624 155.982 106.624C156.569 106.624 157.022 106.416 157.342 106C157.673 105.573 157.838 104.976 157.838 104.208C157.838 103.44 157.673 102.848 157.342 102.432C157.011 102.005 156.558 101.792 155.982 101.792ZM25.032 127.528C25.032 127.773 24.9787 127.971 24.872 128.12C24.7653 128.269 24.6053 128.413 24.392 128.552C24.1253 128.723 23.7733 128.877 23.336 129.016C22.8987 129.165 22.392 129.24 21.816 129.24C20.536 129.24 19.5173 128.915 18.76 128.264C18.0133 127.603 17.64 126.595 17.64 125.24C17.64 124.536 17.7413 123.933 17.944 123.432C18.1467 122.92 18.4187 122.499 18.76 122.168C19.112 121.837 19.5227 121.592 19.992 121.432C20.4613 121.272 20.968 121.192 21.512 121.192C21.8 121.192 22.072 121.224 22.328 121.288C22.584 121.341 22.8133 121.411 23.016 121.496V118.6C23.1013 118.568 23.224 118.541 23.384 118.52C23.5547 118.488 23.736 118.472 23.928 118.472C24.312 118.472 24.5893 118.541 24.76 118.68C24.9413 118.819 25.032 119.064 25.032 119.416V127.528ZM23.016 123.128C22.856 123.032 22.6693 122.952 22.456 122.888C22.2427 122.824 22.0133 122.792 21.768 122.792C21.1707 122.792 20.6747 122.984 20.28 123.368C19.8853 123.752 19.688 124.381 19.688 125.256C19.688 126.077 19.8747 126.68 20.248 127.064C20.632 127.437 21.1493 127.624 21.8 127.624C22.0773 127.624 22.312 127.592 22.504 127.528C22.7067 127.464 22.8773 127.389 23.016 127.304V123.128ZM34.5581 125.208C34.5581 125.827 34.4621 126.387 34.2701 126.888C34.0888 127.379 33.8275 127.8 33.4861 128.152C33.1448 128.504 32.7341 128.776 32.2541 128.968C31.7741 129.149 31.2355 129.24 30.6381 129.24C30.0408 129.24 29.5021 129.149 29.0221 128.968C28.5421 128.776 28.1315 128.509 27.7901 128.168C27.4488 127.816 27.1821 127.395 26.9901 126.904C26.8088 126.403 26.7181 125.837 26.7181 125.208C26.7181 124.589 26.8088 124.035 26.9901 123.544C27.1821 123.043 27.4488 122.621 27.7901 122.28C28.1421 121.928 28.5581 121.661 29.0381 121.48C29.5181 121.288 30.0515 121.192 30.6381 121.192C31.2248 121.192 31.7581 121.288 32.2381 121.48C32.7181 121.661 33.1288 121.928 33.4701 122.28C33.8221 122.632 34.0888 123.059 34.2701 123.56C34.4621 124.051 34.5581 124.6 34.5581 125.208ZM30.6381 122.792C30.0621 122.792 29.6088 123.005 29.2781 123.432C28.9475 123.848 28.7821 124.44 28.7821 125.208C28.7821 125.987 28.9421 126.584 29.2621 127C29.5928 127.416 30.0515 127.624 30.6381 127.624C31.2248 127.624 31.6781 127.416 31.9981 127C32.3288 126.573 32.4941 125.976 32.4941 125.208C32.4941 124.44 32.3288 123.848 31.9981 123.432C31.6675 123.005 31.2141 122.792 30.6381 122.792ZM42.1151 126.856C42.1151 127.603 41.8378 128.189 41.2831 128.616C40.7285 129.032 39.9178 129.24 38.8511 129.24C38.4138 129.24 38.0138 129.208 37.6511 129.144C37.2991 129.08 36.9898 128.989 36.7231 128.872C36.4671 128.744 36.2645 128.595 36.1151 128.424C35.9765 128.243 35.9071 128.045 35.9071 127.832C35.9071 127.629 35.9498 127.453 36.0351 127.304C36.1311 127.155 36.2538 127.032 36.4031 126.936C36.7018 127.128 37.0431 127.299 37.4271 127.448C37.8218 127.597 38.2751 127.672 38.7871 127.672C39.2245 127.672 39.5551 127.603 39.7791 127.464C40.0031 127.315 40.1151 127.112 40.1151 126.856C40.1151 126.419 39.7951 126.131 39.1551 125.992L38.2591 125.784C37.4698 125.603 36.8831 125.331 36.4991 124.968C36.1258 124.605 35.9391 124.12 35.9391 123.512C35.9391 122.819 36.2165 122.259 36.7711 121.832C37.3258 121.395 38.1045 121.176 39.1071 121.176C39.4911 121.176 39.8431 121.208 40.1631 121.272C40.4938 121.325 40.7765 121.411 41.0111 121.528C41.2565 121.635 41.4431 121.768 41.5711 121.928C41.7098 122.077 41.7791 122.253 41.7791 122.456C41.7791 122.648 41.7365 122.819 41.6511 122.968C41.5658 123.107 41.4645 123.219 41.3471 123.304C41.2511 123.24 41.1231 123.176 40.9631 123.112C40.8138 123.048 40.6431 122.989 40.4511 122.936C40.2698 122.883 40.0725 122.84 39.8591 122.808C39.6565 122.765 39.4538 122.744 39.2511 122.744C38.8351 122.744 38.5098 122.813 38.2751 122.952C38.0405 123.08 37.9231 123.267 37.9231 123.512C37.9231 123.693 37.9871 123.843 38.1151 123.96C38.2538 124.077 38.4885 124.173 38.8191 124.248L39.6031 124.44C40.4885 124.643 41.1285 124.941 41.5231 125.336C41.9178 125.72 42.1151 126.227 42.1151 126.856ZM48.8979 121.928H51.7939C51.8472 122.013 51.8952 122.125 51.9379 122.264C51.9805 122.392 52.0019 122.536 52.0019 122.696C52.0019 122.973 51.9379 123.176 51.8099 123.304C51.6819 123.432 51.5112 123.496 51.2979 123.496H48.9939V128.984C48.8979 129.005 48.7699 129.032 48.6099 129.064C48.4499 129.096 48.2685 129.112 48.0659 129.112C47.6925 129.112 47.4152 129.043 47.2339 128.904C47.0525 128.765 46.9619 128.52 46.9619 128.168V121.096C46.9619 120.584 47.0419 120.147 47.2019 119.784C47.3619 119.421 47.5859 119.123 47.8739 118.888C48.1619 118.653 48.5032 118.483 48.8979 118.376C49.2925 118.259 49.7245 118.2 50.1939 118.2C51.6125 118.2 52.3219 118.573 52.3219 119.32C52.3219 119.491 52.2845 119.645 52.2099 119.784C52.1459 119.912 52.0659 120.019 51.9699 120.104C51.7672 120.019 51.5379 119.949 51.2819 119.896C51.0365 119.843 50.7752 119.816 50.4979 119.816C49.9432 119.816 49.5379 119.923 49.2819 120.136C49.0259 120.349 48.8979 120.696 48.8979 121.176V121.928ZM60.3761 127.512C60.3761 127.757 60.3335 127.965 60.2481 128.136C60.1628 128.296 60.0081 128.44 59.7841 128.568C59.4748 128.76 59.0801 128.92 58.6001 129.048C58.1308 129.176 57.5921 129.24 56.9841 129.24C56.4295 129.24 55.9281 129.176 55.4801 129.048C55.0321 128.931 54.6481 128.744 54.3281 128.488C54.0081 128.232 53.7628 127.907 53.5921 127.512C53.4215 127.117 53.3361 126.648 53.3361 126.104V121.448C53.4215 121.416 53.5441 121.389 53.7041 121.368C53.8748 121.336 54.0615 121.32 54.2641 121.32C54.6375 121.32 54.9148 121.389 55.0961 121.528C55.2775 121.656 55.3681 121.901 55.3681 122.264V126.072C55.3681 126.627 55.5068 127.027 55.7841 127.272C56.0721 127.507 56.4775 127.624 57.0001 127.624C57.3308 127.624 57.6081 127.592 57.8321 127.528C58.0668 127.464 58.2428 127.395 58.3601 127.32V121.448C58.4455 121.416 58.5681 121.389 58.7281 121.368C58.8988 121.336 59.0801 121.32 59.2721 121.32C59.6561 121.32 59.9335 121.389 60.1041 121.528C60.2855 121.656 60.3761 121.901 60.3761 122.264V127.512ZM67.4226 124.12C67.4226 123.661 67.2893 123.325 67.0226 123.112C66.7666 122.899 66.4146 122.792 65.9666 122.792C65.6573 122.792 65.3693 122.829 65.1026 122.904C64.8466 122.979 64.6226 123.075 64.4306 123.192V128.984C64.3346 129.005 64.2066 129.032 64.0466 129.064C63.8866 129.096 63.7053 129.112 63.5026 129.112C63.1293 129.112 62.852 129.043 62.6706 128.904C62.4893 128.765 62.3986 128.52 62.3986 128.168V123.032C62.3986 122.776 62.452 122.568 62.5586 122.408C62.6653 122.248 62.8306 122.093 63.0546 121.944C63.364 121.731 63.7746 121.555 64.2866 121.416C64.7986 121.267 65.364 121.192 65.9826 121.192C67.0813 121.192 67.9293 121.437 68.5266 121.928C69.1346 122.408 69.4386 123.117 69.4386 124.056V128.984C69.3533 129.005 69.2253 129.032 69.0546 129.064C68.8946 129.096 68.7186 129.112 68.5266 129.112C68.1426 129.112 67.86 129.043 67.6786 128.904C67.508 128.765 67.4226 128.52 67.4226 128.168V124.12ZM75.3968 122.808C75.0768 122.808 74.7781 122.861 74.5008 122.968C74.2341 123.075 73.9994 123.229 73.7968 123.432C73.6048 123.635 73.4501 123.885 73.3328 124.184C73.2154 124.483 73.1568 124.829 73.1568 125.224C73.1568 126.013 73.3648 126.611 73.7808 127.016C74.1968 127.411 74.7354 127.608 75.3968 127.608C75.7701 127.608 76.0901 127.56 76.3568 127.464C76.6341 127.357 76.8794 127.245 77.0928 127.128C77.2421 127.235 77.3594 127.357 77.4448 127.496C77.5408 127.635 77.5888 127.795 77.5888 127.976C77.5888 128.339 77.3754 128.637 76.9488 128.872C76.5221 129.107 75.9461 129.224 75.2208 129.224C74.6128 129.224 74.0528 129.144 73.5408 128.984C73.0394 128.813 72.6074 128.563 72.2448 128.232C71.8821 127.891 71.5994 127.469 71.3968 126.968C71.2048 126.467 71.1088 125.885 71.1088 125.224C71.1088 124.552 71.2154 123.965 71.4288 123.464C71.6421 122.952 71.9301 122.531 72.2928 122.2C72.6661 121.859 73.0981 121.608 73.5888 121.448C74.0794 121.277 74.6021 121.192 75.1568 121.192C75.8714 121.192 76.4421 121.32 76.8688 121.576C77.2954 121.821 77.5088 122.125 77.5088 122.488C77.5088 122.659 77.4608 122.813 77.3648 122.952C77.2794 123.091 77.1781 123.203 77.0608 123.288C76.8474 123.171 76.6074 123.064 76.3408 122.968C76.0848 122.861 75.7701 122.808 75.3968 122.808ZM79.3068 121.48C79.3921 121.459 79.5148 121.432 79.6748 121.4C79.8454 121.368 80.0268 121.352 80.2188 121.352C80.6028 121.352 80.8801 121.421 81.0508 121.56C81.2321 121.699 81.3228 121.944 81.3228 122.296V128.984C81.2374 129.005 81.1094 129.032 80.9388 129.064C80.7788 129.096 80.6028 129.112 80.4108 129.112C80.0268 129.112 79.7441 129.043 79.5628 128.904C79.3921 128.765 79.3068 128.52 79.3068 128.168V121.48ZM79.1468 119.16C79.1468 118.851 79.2534 118.589 79.4668 118.376C79.6908 118.152 79.9734 118.04 80.3148 118.04C80.6561 118.04 80.9334 118.152 81.1468 118.376C81.3601 118.589 81.4668 118.851 81.4668 119.16C81.4668 119.48 81.3601 119.752 81.1468 119.976C80.9334 120.189 80.6561 120.296 80.3148 120.296C79.9734 120.296 79.6908 120.189 79.4668 119.976C79.2534 119.752 79.1468 119.48 79.1468 119.16ZM90.8863 125.208C90.8863 125.827 90.7903 126.387 90.5983 126.888C90.4169 127.379 90.1556 127.8 89.8143 128.152C89.4729 128.504 89.0623 128.776 88.5823 128.968C88.1023 129.149 87.5636 129.24 86.9663 129.24C86.3689 129.24 85.8303 129.149 85.3503 128.968C84.8703 128.776 84.4596 128.509 84.1183 128.168C83.7769 127.816 83.5103 127.395 83.3183 126.904C83.1369 126.403 83.0463 125.837 83.0463 125.208C83.0463 124.589 83.1369 124.035 83.3183 123.544C83.5103 123.043 83.7769 122.621 84.1183 122.28C84.4703 121.928 84.8863 121.661 85.3663 121.48C85.8463 121.288 86.3796 121.192 86.9663 121.192C87.5529 121.192 88.0863 121.288 88.5663 121.48C89.0463 121.661 89.4569 121.928 89.7983 122.28C90.1503 122.632 90.4169 123.059 90.5983 123.56C90.7903 124.051 90.8863 124.6 90.8863 125.208ZM86.9663 122.792C86.3903 122.792 85.9369 123.005 85.6063 123.432C85.2756 123.848 85.1103 124.44 85.1103 125.208C85.1103 125.987 85.2703 126.584 85.5903 127C85.9209 127.416 86.3796 127.624 86.9663 127.624C87.5529 127.624 88.0063 127.416 88.3263 127C88.6569 126.573 88.8223 125.976 88.8223 125.208C88.8223 124.44 88.6569 123.848 88.3263 123.432C87.9956 123.005 87.5423 122.792 86.9663 122.792ZM97.5633 124.12C97.5633 123.661 97.4299 123.325 97.1633 123.112C96.9073 122.899 96.5553 122.792 96.1073 122.792C95.7979 122.792 95.5099 122.829 95.2433 122.904C94.9873 122.979 94.7633 123.075 94.5713 123.192V128.984C94.4753 129.005 94.3473 129.032 94.1873 129.064C94.0273 129.096 93.8459 129.112 93.6432 129.112C93.2699 129.112 92.9926 129.043 92.8113 128.904C92.6299 128.765 92.5393 128.52 92.5393 128.168V123.032C92.5393 122.776 92.5926 122.568 92.6993 122.408C92.8059 122.248 92.9713 122.093 93.1953 121.944C93.5046 121.731 93.9153 121.555 94.4273 121.416C94.9393 121.267 95.5046 121.192 96.1233 121.192C97.2219 121.192 98.0699 121.437 98.6673 121.928C99.2753 122.408 99.5793 123.117 99.5793 124.056V128.984C99.4939 129.005 99.3659 129.032 99.1953 129.064C99.0353 129.096 98.8593 129.112 98.6673 129.112C98.2833 129.112 98.0006 129.043 97.8193 128.904C97.6486 128.765 97.5633 128.52 97.5633 128.168V124.12ZM104.609 127.704C104.919 127.704 105.201 127.677 105.457 127.624C105.713 127.56 105.9 127.485 106.017 127.4V125.624L104.465 125.768C104.039 125.811 103.713 125.907 103.489 126.056C103.265 126.195 103.153 126.419 103.153 126.728C103.153 127.037 103.265 127.277 103.489 127.448C103.724 127.619 104.097 127.704 104.609 127.704ZM104.545 121.192C105.591 121.192 106.423 121.416 107.041 121.864C107.671 122.312 107.985 123.005 107.985 123.944V127.64C107.985 127.896 107.921 128.099 107.793 128.248C107.665 128.397 107.505 128.531 107.313 128.648C107.015 128.829 106.636 128.973 106.177 129.08C105.719 129.187 105.196 129.24 104.609 129.24C103.543 129.24 102.7 129.037 102.081 128.632C101.473 128.216 101.169 127.597 101.169 126.776C101.169 126.061 101.393 125.517 101.841 125.144C102.3 124.76 102.961 124.525 103.825 124.44L106.017 124.216V123.928C106.017 123.523 105.868 123.224 105.569 123.032C105.281 122.84 104.871 122.744 104.337 122.744C103.921 122.744 103.516 122.797 103.121 122.904C102.727 123 102.375 123.123 102.065 123.272C101.948 123.187 101.847 123.075 101.761 122.936C101.687 122.787 101.649 122.627 101.649 122.456C101.649 122.243 101.697 122.072 101.793 121.944C101.9 121.805 102.065 121.683 102.289 121.576C102.599 121.448 102.951 121.352 103.345 121.288C103.74 121.224 104.14 121.192 104.545 121.192ZM105.697 117.48C106.092 117.48 106.396 117.571 106.609 117.752C106.823 117.933 106.929 118.136 106.929 118.36C106.929 118.563 106.887 118.728 106.801 118.856C106.716 118.973 106.572 119.123 106.369 119.304L104.881 120.648C104.54 120.648 104.273 120.563 104.081 120.392C103.9 120.221 103.809 120.035 103.809 119.832C103.809 119.715 103.831 119.613 103.873 119.528C103.927 119.443 104.007 119.341 104.113 119.224L105.697 117.48ZM112.009 128.984C111.913 129.005 111.785 129.032 111.625 129.064C111.465 129.096 111.283 129.112 111.081 129.112C110.707 129.112 110.43 129.043 110.249 128.904C110.067 128.765 109.977 128.52 109.977 128.168V123.096C109.977 122.819 110.041 122.584 110.169 122.392C110.297 122.2 110.483 122.029 110.729 121.88C111.059 121.677 111.465 121.512 111.945 121.384C112.435 121.256 112.963 121.192 113.529 121.192C114.542 121.192 115.049 121.507 115.049 122.136C115.049 122.285 115.022 122.429 114.969 122.568C114.926 122.696 114.878 122.803 114.825 122.888C114.579 122.835 114.275 122.808 113.913 122.808C113.539 122.808 113.187 122.851 112.857 122.936C112.526 123.021 112.243 123.128 112.009 123.256V128.984ZM116.416 121.48C116.501 121.459 116.624 121.432 116.784 121.4C116.955 121.368 117.136 121.352 117.328 121.352C117.712 121.352 117.989 121.421 118.16 121.56C118.341 121.699 118.432 121.944 118.432 122.296V128.984C118.347 129.005 118.219 129.032 118.048 129.064C117.888 129.096 117.712 129.112 117.52 129.112C117.136 129.112 116.853 129.043 116.672 128.904C116.501 128.765 116.416 128.52 116.416 128.168V121.48ZM116.256 119.16C116.256 118.851 116.363 118.589 116.576 118.376C116.8 118.152 117.083 118.04 117.424 118.04C117.765 118.04 118.043 118.152 118.256 118.376C118.469 118.589 118.576 118.851 118.576 119.16C118.576 119.48 118.469 119.752 118.256 119.976C118.043 120.189 117.765 120.296 117.424 120.296C117.083 120.296 116.8 120.189 116.576 119.976C116.363 119.752 116.256 119.48 116.256 119.16ZM127.996 125.208C127.996 125.827 127.9 126.387 127.708 126.888C127.526 127.379 127.265 127.8 126.924 128.152C126.582 128.504 126.172 128.776 125.692 128.968C125.212 129.149 124.673 129.24 124.076 129.24C123.478 129.24 122.94 129.149 122.46 128.968C121.98 128.776 121.569 128.509 121.228 128.168C120.886 127.816 120.62 127.395 120.428 126.904C120.246 126.403 120.156 125.837 120.156 125.208C120.156 124.589 120.246 124.035 120.428 123.544C120.62 123.043 120.886 122.621 121.228 122.28C121.58 121.928 121.996 121.661 122.476 121.48C122.956 121.288 123.489 121.192 124.076 121.192C124.662 121.192 125.196 121.288 125.676 121.48C126.156 121.661 126.566 121.928 126.908 122.28C127.26 122.632 127.526 123.059 127.708 123.56C127.9 124.051 127.996 124.6 127.996 125.208ZM124.076 122.792C123.5 122.792 123.046 123.005 122.716 123.432C122.385 123.848 122.22 124.44 122.22 125.208C122.22 125.987 122.38 126.584 122.7 127C123.03 127.416 123.489 127.624 124.076 127.624C124.662 127.624 125.116 127.416 125.436 127C125.766 126.573 125.932 125.976 125.932 125.208C125.932 124.44 125.766 123.848 125.436 123.432C125.105 123.005 124.652 122.792 124.076 122.792ZM135.553 126.856C135.553 127.603 135.275 128.189 134.721 128.616C134.166 129.032 133.355 129.24 132.289 129.24C131.851 129.24 131.451 129.208 131.089 129.144C130.737 129.08 130.427 128.989 130.161 128.872C129.905 128.744 129.702 128.595 129.553 128.424C129.414 128.243 129.345 128.045 129.345 127.832C129.345 127.629 129.387 127.453 129.473 127.304C129.569 127.155 129.691 127.032 129.841 126.936C130.139 127.128 130.481 127.299 130.865 127.448C131.259 127.597 131.713 127.672 132.225 127.672C132.662 127.672 132.993 127.603 133.217 127.464C133.441 127.315 133.553 127.112 133.553 126.856C133.553 126.419 133.233 126.131 132.593 125.992L131.697 125.784C130.907 125.603 130.321 125.331 129.937 124.968C129.563 124.605 129.377 124.12 129.377 123.512C129.377 122.819 129.654 122.259 130.209 121.832C130.763 121.395 131.542 121.176 132.545 121.176C132.929 121.176 133.281 121.208 133.601 121.272C133.931 121.325 134.214 121.411 134.449 121.528C134.694 121.635 134.881 121.768 135.009 121.928C135.147 122.077 135.217 122.253 135.217 122.456C135.217 122.648 135.174 122.819 135.089 122.968C135.003 123.107 134.902 123.219 134.785 123.304C134.689 123.24 134.561 123.176 134.401 123.112C134.251 123.048 134.081 122.989 133.889 122.936C133.707 122.883 133.51 122.84 133.297 122.808C133.094 122.765 132.891 122.744 132.689 122.744C132.273 122.744 131.947 122.813 131.713 122.952C131.478 123.08 131.361 123.267 131.361 123.512C131.361 123.693 131.425 123.843 131.553 123.96C131.691 124.077 131.926 124.173 132.257 124.248L133.041 124.44C133.926 124.643 134.566 124.941 134.961 125.336C135.355 125.72 135.553 126.227 135.553 126.856ZM142.015 126.12C142.165 126.664 142.442 127.059 142.847 127.304C143.253 127.549 143.754 127.672 144.351 127.672C144.799 127.672 145.21 127.608 145.583 127.48C145.967 127.341 146.277 127.197 146.511 127.048C146.661 127.133 146.783 127.251 146.879 127.4C146.975 127.549 147.023 127.709 147.023 127.88C147.023 128.093 146.949 128.285 146.799 128.456C146.661 128.616 146.463 128.755 146.207 128.872C145.962 128.989 145.669 129.08 145.327 129.144C144.986 129.208 144.618 129.24 144.223 129.24C143.594 129.24 143.018 129.155 142.495 128.984C141.983 128.813 141.541 128.557 141.167 128.216C140.805 127.864 140.517 127.432 140.303 126.92C140.101 126.408 139.999 125.811 139.999 125.128C139.999 124.467 140.101 123.891 140.303 123.4C140.506 122.909 140.778 122.499 141.119 122.168C141.471 121.837 141.877 121.592 142.335 121.432C142.794 121.272 143.279 121.192 143.791 121.192C144.314 121.192 144.794 121.277 145.231 121.448C145.669 121.608 146.042 121.837 146.351 122.136C146.661 122.424 146.901 122.776 147.071 123.192C147.253 123.597 147.343 124.04 147.343 124.52C147.343 124.819 147.263 125.043 147.103 125.192C146.954 125.341 146.741 125.437 146.463 125.48L142.015 126.12ZM143.791 122.712C143.269 122.712 142.831 122.888 142.479 123.24C142.127 123.581 141.93 124.072 141.887 124.712L145.439 124.184C145.397 123.789 145.242 123.448 144.975 123.16C144.709 122.861 144.314 122.712 143.791 122.712ZM158.021 126.856C158.021 127.603 157.744 128.189 157.189 128.616C156.635 129.032 155.824 129.24 154.757 129.24C154.32 129.24 153.92 129.208 153.557 129.144C153.205 129.08 152.896 128.989 152.629 128.872C152.373 128.744 152.171 128.595 152.021 128.424C151.883 128.243 151.813 128.045 151.813 127.832C151.813 127.629 151.856 127.453 151.941 127.304C152.037 127.155 152.16 127.032 152.309 126.936C152.608 127.128 152.949 127.299 153.333 127.448C153.728 127.597 154.181 127.672 154.693 127.672C155.131 127.672 155.461 127.603 155.685 127.464C155.909 127.315 156.021 127.112 156.021 126.856C156.021 126.419 155.701 126.131 155.061 125.992L154.165 125.784C153.376 125.603 152.789 125.331 152.405 124.968C152.032 124.605 151.845 124.12 151.845 123.512C151.845 122.819 152.123 122.259 152.677 121.832C153.232 121.395 154.011 121.176 155.013 121.176C155.397 121.176 155.749 121.208 156.069 121.272C156.4 121.325 156.683 121.411 156.917 121.528C157.163 121.635 157.349 121.768 157.477 121.928C157.616 122.077 157.685 122.253 157.685 122.456C157.685 122.648 157.643 122.819 157.557 122.968C157.472 123.107 157.371 123.219 157.253 123.304C157.157 123.24 157.029 123.176 156.869 123.112C156.72 123.048 156.549 122.989 156.357 122.936C156.176 122.883 155.979 122.84 155.765 122.808C155.563 122.765 155.36 122.744 155.157 122.744C154.741 122.744 154.416 122.813 154.181 122.952C153.947 123.08 153.829 123.267 153.829 123.512C153.829 123.693 153.893 123.843 154.021 123.96C154.16 124.077 154.395 124.173 154.725 124.248L155.509 124.44C156.395 124.643 157.035 124.941 157.429 125.336C157.824 125.72 158.021 126.227 158.021 126.856ZM167.183 125.208C167.183 125.827 167.087 126.387 166.895 126.888C166.714 127.379 166.452 127.8 166.111 128.152C165.77 128.504 165.359 128.776 164.879 128.968C164.399 129.149 163.86 129.24 163.263 129.24C162.666 129.24 162.127 129.149 161.647 128.968C161.167 128.776 160.756 128.509 160.415 128.168C160.074 127.816 159.807 127.395 159.615 126.904C159.434 126.403 159.343 125.837 159.343 125.208C159.343 124.589 159.434 124.035 159.615 123.544C159.807 123.043 160.074 122.621 160.415 122.28C160.767 121.928 161.183 121.661 161.663 121.48C162.143 121.288 162.676 121.192 163.263 121.192C163.85 121.192 164.383 121.288 164.863 121.48C165.343 121.661 165.754 121.928 166.095 122.28C166.447 122.632 166.714 123.059 166.895 123.56C167.087 124.051 167.183 124.6 167.183 125.208ZM163.263 122.792C162.687 122.792 162.234 123.005 161.903 123.432C161.572 123.848 161.407 124.44 161.407 125.208C161.407 125.987 161.567 126.584 161.887 127C162.218 127.416 162.676 127.624 163.263 127.624C163.85 127.624 164.303 127.416 164.623 127C164.954 126.573 165.119 125.976 165.119 125.208C165.119 124.44 164.954 123.848 164.623 123.432C164.292 123.005 163.839 122.792 163.263 122.792ZM164.191 117.48C164.586 117.48 164.89 117.571 165.103 117.752C165.316 117.933 165.423 118.136 165.423 118.36C165.423 118.563 165.38 118.728 165.295 118.856C165.21 118.973 165.066 119.123 164.863 119.304L163.375 120.648C163.034 120.648 162.767 120.563 162.575 120.392C162.394 120.221 162.303 120.035 162.303 119.832C162.303 119.715 162.324 119.613 162.367 119.528C162.42 119.443 162.5 119.341 162.607 119.224L164.191 117.48ZM172.756 122.808C172.436 122.808 172.137 122.861 171.86 122.968C171.593 123.075 171.359 123.229 171.156 123.432C170.964 123.635 170.809 123.885 170.692 124.184C170.575 124.483 170.516 124.829 170.516 125.224C170.516 126.013 170.724 126.611 171.14 127.016C171.556 127.411 172.095 127.608 172.756 127.608C173.129 127.608 173.449 127.56 173.716 127.464C173.993 127.357 174.239 127.245 174.452 127.128C174.601 127.235 174.719 127.357 174.804 127.496C174.9 127.635 174.948 127.795 174.948 127.976C174.948 128.339 174.735 128.637 174.308 128.872C173.881 129.107 173.305 129.224 172.58 129.224C171.972 129.224 171.412 129.144 170.9 128.984C170.399 128.813 169.967 128.563 169.604 128.232C169.241 127.891 168.959 127.469 168.756 126.968C168.564 126.467 168.468 125.885 168.468 125.224C168.468 124.552 168.575 123.965 168.788 123.464C169.001 122.952 169.289 122.531 169.652 122.2C170.025 121.859 170.457 121.608 170.948 121.448C171.439 121.277 171.961 121.192 172.516 121.192C173.231 121.192 173.801 121.32 174.228 121.576C174.655 121.821 174.868 122.125 174.868 122.488C174.868 122.659 174.82 122.813 174.724 122.952C174.639 123.091 174.537 123.203 174.42 123.288C174.207 123.171 173.967 123.064 173.7 122.968C173.444 122.861 173.129 122.808 172.756 122.808ZM176.666 121.48C176.751 121.459 176.874 121.432 177.034 121.4C177.205 121.368 177.386 121.352 177.578 121.352C177.962 121.352 178.239 121.421 178.41 121.56C178.591 121.699 178.682 121.944 178.682 122.296V128.984C178.597 129.005 178.469 129.032 178.298 129.064C178.138 129.096 177.962 129.112 177.77 129.112C177.386 129.112 177.103 129.043 176.922 128.904C176.751 128.765 176.666 128.52 176.666 128.168V121.48ZM176.506 119.16C176.506 118.851 176.613 118.589 176.826 118.376C177.05 118.152 177.333 118.04 177.674 118.04C178.015 118.04 178.293 118.152 178.506 118.376C178.719 118.589 178.826 118.851 178.826 119.16C178.826 119.48 178.719 119.752 178.506 119.976C178.293 120.189 178.015 120.296 177.674 120.296C177.333 120.296 177.05 120.189 176.826 119.976C176.613 119.752 176.506 119.48 176.506 119.16ZM188.246 125.208C188.246 125.827 188.15 126.387 187.958 126.888C187.776 127.379 187.515 127.8 187.174 128.152C186.832 128.504 186.422 128.776 185.942 128.968C185.462 129.149 184.923 129.24 184.326 129.24C183.728 129.24 183.19 129.149 182.71 128.968C182.23 128.776 181.819 128.509 181.478 128.168C181.136 127.816 180.87 127.395 180.678 126.904C180.496 126.403 180.406 125.837 180.406 125.208C180.406 124.589 180.496 124.035 180.678 123.544C180.87 123.043 181.136 122.621 181.478 122.28C181.83 121.928 182.246 121.661 182.726 121.48C183.206 121.288 183.739 121.192 184.326 121.192C184.912 121.192 185.446 121.288 185.926 121.48C186.406 121.661 186.816 121.928 187.158 122.28C187.51 122.632 187.776 123.059 187.958 123.56C188.15 124.051 188.246 124.6 188.246 125.208ZM184.326 122.792C183.75 122.792 183.296 123.005 182.966 123.432C182.635 123.848 182.47 124.44 182.47 125.208C182.47 125.987 182.63 126.584 182.95 127C183.28 127.416 183.739 127.624 184.326 127.624C184.912 127.624 185.366 127.416 185.686 127C186.016 126.573 186.182 125.976 186.182 125.208C186.182 124.44 186.016 123.848 185.686 123.432C185.355 123.005 184.902 122.792 184.326 122.792ZM195.803 126.856C195.803 127.603 195.525 128.189 194.971 128.616C194.416 129.032 193.605 129.24 192.539 129.24C192.101 129.24 191.701 129.208 191.339 129.144C190.987 129.08 190.677 128.989 190.411 128.872C190.155 128.744 189.952 128.595 189.803 128.424C189.664 128.243 189.595 128.045 189.595 127.832C189.595 127.629 189.637 127.453 189.723 127.304C189.819 127.155 189.941 127.032 190.091 126.936C190.389 127.128 190.731 127.299 191.115 127.448C191.509 127.597 191.963 127.672 192.475 127.672C192.912 127.672 193.243 127.603 193.467 127.464C193.691 127.315 193.803 127.112 193.803 126.856C193.803 126.419 193.483 126.131 192.843 125.992L191.947 125.784C191.157 125.603 190.571 125.331 190.187 124.968C189.813 124.605 189.627 124.12 189.627 123.512C189.627 122.819 189.904 122.259 190.459 121.832C191.013 121.395 191.792 121.176 192.795 121.176C193.179 121.176 193.531 121.208 193.851 121.272C194.181 121.325 194.464 121.411 194.699 121.528C194.944 121.635 195.131 121.768 195.259 121.928C195.397 122.077 195.467 122.253 195.467 122.456C195.467 122.648 195.424 122.819 195.339 122.968C195.253 123.107 195.152 123.219 195.035 123.304C194.939 123.24 194.811 123.176 194.651 123.112C194.501 123.048 194.331 122.989 194.139 122.936C193.957 122.883 193.76 122.84 193.547 122.808C193.344 122.765 193.141 122.744 192.939 122.744C192.523 122.744 192.197 122.813 191.963 122.952C191.728 123.08 191.611 123.267 191.611 123.512C191.611 123.693 191.675 123.843 191.803 123.96C191.941 124.077 192.176 124.173 192.507 124.248L193.291 124.44C194.176 124.643 194.816 124.941 195.211 125.336C195.605 125.72 195.803 126.227 195.803 126.856Z" fill="#3B3C3D"/>
<defs>
<clipPath id="clip0_1224_35186">
<rect width="28.3073" height="28.3073" fill="white" transform="translate(12.6172 50)"/>
</clipPath>
<clipPath id="clip1_1224_35186">
<rect width="28" height="28" fill="white" transform="translate(13 49.9873)"/>
</clipPath>
</defs>
</svg>
