<svg width="208" height="153" viewBox="0 0 208 153" fill="none" xmlns="http://www.w3.org/2000/svg">
<rect width="208" height="153" rx="10.9127" fill="white"/>
<path d="M29.4881 53.3538L29.4881 53.3538C29.225 53.6169 29.0798 53.9664 29.0798 54.3373V55.5894H27.3832C26.6159 55.5894 25.9914 56.2138 25.9914 56.9811V77.2661C25.9914 78.0334 26.6159 78.6579 27.3832 78.6579H41.5589C42.3262 78.6579 42.9507 78.0334 42.9507 77.2661V75.5928H44.2061C44.9734 75.5928 45.5979 74.9683 45.5979 74.201V54.3372C45.5979 53.5701 44.9759 52.9455 44.2063 52.9455H30.4716C30.1007 52.9455 29.7512 53.0908 29.4881 53.3538ZM41.8713 77.2675C41.8706 77.4362 41.7335 77.5729 41.5646 77.5729H27.3889C27.2196 77.5729 27.0823 77.4355 27.0823 77.2662V56.9846C27.0823 56.8153 27.2196 56.6779 27.3889 56.6779H41.5658C41.7345 56.6779 41.8715 56.8144 41.8724 56.9828L41.8724 56.9831L41.8724 56.9871L41.8723 56.9987L41.8721 57.0425L41.8718 57.2122L41.8713 57.856C41.871 58.4106 41.8708 59.2029 41.8705 60.1536C41.8701 62.055 41.8699 64.5902 41.8698 67.1254C41.8697 69.6606 41.8698 72.1958 41.8701 74.0972L41.8706 76.3948L41.8709 77.0385L41.8711 77.2082L41.8712 77.2519L41.8713 77.2633L41.8713 77.2669L41.8713 77.2675ZM44.5129 74.2011C44.5129 74.3704 44.3755 74.5077 44.2063 74.5077H42.9509V56.9846C42.9509 56.2173 42.3264 55.5928 41.5591 55.5928H30.165V54.3374C30.165 54.2562 30.1977 54.1782 30.2546 54.122C30.3156 54.0627 30.3937 54.0308 30.4717 54.0308H44.2064C44.3757 54.0308 44.5131 54.1681 44.5131 54.3374L44.5129 74.2011ZM39.3255 61.6532H29.6226C29.3231 61.6532 29.0801 61.8962 29.0801 62.1958C29.0801 62.4953 29.3231 62.7383 29.6226 62.7383H39.3236C39.6231 62.7383 39.8661 62.4953 39.8661 62.1958C39.8661 61.8972 39.6271 61.6532 39.3255 61.6532ZM39.3255 66.8822H29.6226C29.3231 66.8822 29.0801 67.1252 29.0801 67.4248C29.0801 67.7243 29.3231 67.9673 29.6226 67.9673H39.3236C39.6231 67.9673 39.8661 67.7243 39.8661 67.4248C39.8661 67.1248 39.6269 66.8822 39.3255 66.8822ZM39.3255 72.3436H29.6226C29.3231 72.3436 29.0801 72.5866 29.0801 72.8862C29.0801 73.1857 29.3231 73.4287 29.6226 73.4287H39.3236C39.6231 73.4287 39.8661 73.1857 39.8661 72.8862C39.8661 72.5875 39.6271 72.3436 39.3255 72.3436Z" fill="#037FCC" stroke="#037FCC" stroke-width="0.235894"/>
<path d="M28.5235 108.421C28.1822 108.421 27.9102 108.319 27.7075 108.117C27.5155 107.914 27.4195 107.642 27.4195 107.301V99.7807C27.4195 99.4393 27.5155 99.1727 27.7075 98.9807C27.9102 98.778 28.1822 98.6767 28.5235 98.6767H33.8195C33.8728 98.762 33.9208 98.874 33.9635 99.0127C34.0062 99.1513 34.0275 99.306 34.0275 99.4767C34.0275 99.754 33.9635 99.9673 33.8355 100.117C33.7075 100.266 33.5315 100.341 33.3075 100.341H29.4355V102.613H33.3395C33.3928 102.698 33.4408 102.81 33.4835 102.949C33.5368 103.077 33.5635 103.226 33.5635 103.397C33.5635 103.973 33.3182 104.261 32.8275 104.261H29.4355V106.741H33.8835C33.9368 106.826 33.9848 106.943 34.0275 107.093C34.0808 107.231 34.1075 107.386 34.1075 107.557C34.1075 108.133 33.8622 108.421 33.3715 108.421H28.5235ZM47.0536 108.373C46.9683 108.394 46.8403 108.421 46.6696 108.453C46.5096 108.485 46.3336 108.501 46.1416 108.501C45.7576 108.501 45.475 108.431 45.2936 108.293C45.123 108.154 45.0376 107.909 45.0376 107.557V103.397C45.0376 102.97 44.9203 102.661 44.6856 102.469C44.451 102.277 44.1416 102.181 43.7576 102.181C43.5016 102.181 43.251 102.229 43.0056 102.325C42.771 102.421 42.563 102.549 42.3816 102.709C42.4136 102.858 42.4296 103.007 42.4296 103.157V108.373C42.3443 108.394 42.2163 108.421 42.0456 108.453C41.8856 108.485 41.7096 108.501 41.5176 108.501C41.1336 108.501 40.851 108.431 40.6696 108.293C40.499 108.154 40.4136 107.909 40.4136 107.557V103.397C40.4136 102.97 40.291 102.661 40.0456 102.469C39.8003 102.277 39.4856 102.181 39.1016 102.181C38.835 102.181 38.5896 102.223 38.3656 102.309C38.1416 102.394 37.955 102.479 37.8056 102.565V108.373C37.7096 108.394 37.5816 108.421 37.4216 108.453C37.2616 108.485 37.0803 108.501 36.8776 108.501C36.5043 108.501 36.227 108.431 36.0456 108.293C35.8643 108.154 35.7736 107.909 35.7736 107.557V102.421C35.7736 102.175 35.827 101.973 35.9336 101.813C36.0403 101.642 36.2056 101.482 36.4296 101.333C36.7496 101.119 37.155 100.943 37.6456 100.805C38.1363 100.655 38.643 100.581 39.1656 100.581C40.1363 100.581 40.9256 100.842 41.5336 101.365C41.843 101.141 42.195 100.954 42.5896 100.805C42.995 100.655 43.4696 100.581 44.0136 100.581C44.4296 100.581 44.8243 100.634 45.1976 100.741C45.571 100.837 45.891 100.997 46.1576 101.221C46.435 101.445 46.6536 101.733 46.8136 102.085C46.9736 102.426 47.0536 102.837 47.0536 103.317V108.373ZM49.1661 100.869C49.2515 100.847 49.3741 100.821 49.5341 100.789C49.7048 100.757 49.8861 100.741 50.0781 100.741C50.4621 100.741 50.7395 100.81 50.9101 100.949C51.0915 101.087 51.1821 101.333 51.1821 101.685V108.373C51.0968 108.394 50.9688 108.421 50.7981 108.453C50.6381 108.485 50.4621 108.501 50.2701 108.501C49.8861 108.501 49.6035 108.431 49.4221 108.293C49.2515 108.154 49.1661 107.909 49.1661 107.557V100.869ZM49.0061 98.5487C49.0061 98.2393 49.1128 97.978 49.3261 97.7647C49.5501 97.5407 49.8328 97.4287 50.1741 97.4287C50.5155 97.4287 50.7928 97.5407 51.0061 97.7647C51.2195 97.978 51.3261 98.2393 51.3261 98.5487C51.3261 98.8687 51.2195 99.1407 51.0061 99.3647C50.7928 99.578 50.5155 99.6847 50.1741 99.6847C49.8328 99.6847 49.5501 99.578 49.3261 99.3647C49.1128 99.1407 49.0061 98.8687 49.0061 98.5487ZM59.1776 106.245C59.1776 106.991 58.9003 107.578 58.3456 108.005C57.791 108.421 56.9803 108.629 55.9136 108.629C55.4763 108.629 55.0763 108.597 54.7136 108.533C54.3616 108.469 54.0523 108.378 53.7856 108.261C53.5296 108.133 53.327 107.983 53.1776 107.813C53.039 107.631 52.9696 107.434 52.9696 107.221C52.9696 107.018 53.0123 106.842 53.0976 106.693C53.1936 106.543 53.3163 106.421 53.4656 106.325C53.7643 106.517 54.1056 106.687 54.4896 106.837C54.8843 106.986 55.3376 107.061 55.8496 107.061C56.287 107.061 56.6176 106.991 56.8416 106.853C57.0656 106.703 57.1776 106.501 57.1776 106.245C57.1776 105.807 56.8576 105.519 56.2176 105.381L55.3216 105.173C54.5323 104.991 53.9456 104.719 53.5616 104.357C53.1883 103.994 53.0016 103.509 53.0016 102.901C53.0016 102.207 53.279 101.647 53.8336 101.221C54.3883 100.783 55.167 100.565 56.1696 100.565C56.5536 100.565 56.9056 100.597 57.2256 100.661C57.5563 100.714 57.839 100.799 58.0736 100.917C58.319 101.023 58.5056 101.157 58.6336 101.317C58.7723 101.466 58.8416 101.642 58.8416 101.845C58.8416 102.037 58.799 102.207 58.7136 102.357C58.6283 102.495 58.527 102.607 58.4096 102.693C58.3136 102.629 58.1856 102.565 58.0256 102.501C57.8763 102.437 57.7056 102.378 57.5136 102.325C57.3323 102.271 57.135 102.229 56.9216 102.197C56.719 102.154 56.5163 102.133 56.3136 102.133C55.8976 102.133 55.5723 102.202 55.3376 102.341C55.103 102.469 54.9856 102.655 54.9856 102.901C54.9856 103.082 55.0496 103.231 55.1776 103.349C55.3163 103.466 55.551 103.562 55.8816 103.637L56.6656 103.829C57.551 104.031 58.191 104.33 58.5856 104.725C58.9803 105.109 59.1776 105.615 59.1776 106.245ZM66.6933 106.245C66.6933 106.991 66.4159 107.578 65.8613 108.005C65.3066 108.421 64.4959 108.629 63.4293 108.629C62.9919 108.629 62.5919 108.597 62.2293 108.533C61.8773 108.469 61.5679 108.378 61.3013 108.261C61.0453 108.133 60.8426 107.983 60.6933 107.813C60.5546 107.631 60.4853 107.434 60.4853 107.221C60.4853 107.018 60.5279 106.842 60.6133 106.693C60.7093 106.543 60.8319 106.421 60.9813 106.325C61.2799 106.517 61.6213 106.687 62.0053 106.837C62.3999 106.986 62.8533 107.061 63.3653 107.061C63.8026 107.061 64.1333 106.991 64.3573 106.853C64.5813 106.703 64.6933 106.501 64.6933 106.245C64.6933 105.807 64.3733 105.519 63.7333 105.381L62.8373 105.173C62.0479 104.991 61.4613 104.719 61.0773 104.357C60.7039 103.994 60.5173 103.509 60.5173 102.901C60.5173 102.207 60.7946 101.647 61.3493 101.221C61.9039 100.783 62.6826 100.565 63.6853 100.565C64.0693 100.565 64.4213 100.597 64.7413 100.661C65.0719 100.714 65.3546 100.799 65.5893 100.917C65.8346 101.023 66.0213 101.157 66.1493 101.317C66.2879 101.466 66.3573 101.642 66.3573 101.845C66.3573 102.037 66.3146 102.207 66.2293 102.357C66.1439 102.495 66.0426 102.607 65.9253 102.693C65.8293 102.629 65.7013 102.565 65.5413 102.501C65.3919 102.437 65.2213 102.378 65.0293 102.325C64.8479 102.271 64.6506 102.229 64.4373 102.197C64.2346 102.154 64.0319 102.133 63.8293 102.133C63.4133 102.133 63.0879 102.202 62.8533 102.341C62.6186 102.469 62.5013 102.655 62.5013 102.901C62.5013 103.082 62.5653 103.231 62.6933 103.349C62.8319 103.466 63.0666 103.562 63.3973 103.637L64.1813 103.829C65.0666 104.031 65.7066 104.33 66.1013 104.725C66.4959 105.109 66.6933 105.615 66.6933 106.245ZM71.4531 107.093C71.7625 107.093 72.0451 107.066 72.3011 107.013C72.5571 106.949 72.7438 106.874 72.8611 106.789V105.013L71.3091 105.157C70.8825 105.199 70.5571 105.295 70.3331 105.445C70.1091 105.583 69.9971 105.807 69.9971 106.117C69.9971 106.426 70.1091 106.666 70.3331 106.837C70.5678 107.007 70.9411 107.093 71.4531 107.093ZM71.3891 100.581C72.4345 100.581 73.2665 100.805 73.8851 101.253C74.5145 101.701 74.8291 102.394 74.8291 103.333V107.029C74.8291 107.285 74.7651 107.487 74.6371 107.637C74.5091 107.786 74.3491 107.919 74.1571 108.037C73.8585 108.218 73.4798 108.362 73.0211 108.469C72.5625 108.575 72.0398 108.629 71.4531 108.629C70.3865 108.629 69.5438 108.426 68.9251 108.021C68.3171 107.605 68.0131 106.986 68.0131 106.165C68.0131 105.45 68.2371 104.906 68.6851 104.533C69.1438 104.149 69.8051 103.914 70.6691 103.829L72.8611 103.605V103.317C72.8611 102.911 72.7118 102.613 72.4131 102.421C72.1251 102.229 71.7145 102.133 71.1811 102.133C70.7651 102.133 70.3598 102.186 69.9651 102.293C69.5705 102.389 69.2185 102.511 68.9091 102.661C68.7918 102.575 68.6905 102.463 68.6051 102.325C68.5305 102.175 68.4931 102.015 68.4931 101.845C68.4931 101.631 68.5411 101.461 68.6371 101.333C68.7438 101.194 68.9091 101.071 69.1331 100.965C69.4425 100.837 69.7945 100.741 70.1891 100.677C70.5838 100.613 70.9838 100.581 71.3891 100.581ZM70.2531 97.4447C70.4771 97.4447 70.6905 97.4713 70.8931 97.5247C71.0958 97.578 71.2878 97.6367 71.4691 97.7007C71.6505 97.754 71.8211 97.8073 71.9811 97.8607C72.1411 97.914 72.2851 97.9407 72.4131 97.9407C72.6265 97.9407 72.7865 97.882 72.8931 97.7647C72.9998 97.6367 73.0798 97.5033 73.1331 97.3647H73.2131C73.4798 97.3647 73.7145 97.45 73.9171 97.6207C74.1198 97.7807 74.2211 98.0153 74.2211 98.3247C74.2211 98.7087 74.0931 99.0073 73.8371 99.2207C73.5811 99.4233 73.2505 99.5247 72.8451 99.5247C72.5998 99.5247 72.3705 99.498 72.1571 99.4447C71.9545 99.3913 71.7625 99.3327 71.5811 99.2687C71.3998 99.2047 71.2291 99.146 71.0691 99.0927C70.9198 99.0393 70.7811 99.0127 70.6531 99.0127C70.4398 99.0127 70.2798 99.0767 70.1731 99.2047C70.0665 99.322 69.9865 99.4553 69.9331 99.6047H69.8691C69.5918 99.6047 69.3518 99.5247 69.1491 99.3647C68.9571 99.194 68.8611 98.954 68.8611 98.6447C68.8611 98.442 68.8985 98.266 68.9731 98.1167C69.0585 97.9673 69.1651 97.8447 69.2931 97.7487C69.4318 97.642 69.5811 97.5673 69.7411 97.5247C69.9118 97.4713 70.0825 97.4447 70.2531 97.4447ZM84.2925 104.597C84.2925 105.215 84.1965 105.775 84.0045 106.277C83.8232 106.767 83.5618 107.189 83.2205 107.541C82.8792 107.893 82.4685 108.165 81.9885 108.357C81.5085 108.538 80.9698 108.629 80.3725 108.629C79.7752 108.629 79.2365 108.538 78.7565 108.357C78.2765 108.165 77.8658 107.898 77.5245 107.557C77.1832 107.205 76.9165 106.783 76.7245 106.293C76.5432 105.791 76.4525 105.226 76.4525 104.597C76.4525 103.978 76.5432 103.423 76.7245 102.933C76.9165 102.431 77.1832 102.01 77.5245 101.669C77.8765 101.317 78.2925 101.05 78.7725 100.869C79.2525 100.677 79.7858 100.581 80.3725 100.581C80.9592 100.581 81.4925 100.677 81.9725 100.869C82.4525 101.05 82.8632 101.317 83.2045 101.669C83.5565 102.021 83.8232 102.447 84.0045 102.949C84.1965 103.439 84.2925 103.989 84.2925 104.597ZM80.3725 102.181C79.7965 102.181 79.3432 102.394 79.0125 102.821C78.6818 103.237 78.5165 103.829 78.5165 104.597C78.5165 105.375 78.6765 105.973 78.9965 106.389C79.3272 106.805 79.7858 107.013 80.3725 107.013C80.9592 107.013 81.4125 106.805 81.7325 106.389C82.0632 105.962 82.2285 105.365 82.2285 104.597C82.2285 103.829 82.0632 103.237 81.7325 102.821C81.4018 102.394 80.9485 102.181 80.3725 102.181ZM96.1726 106.917C96.1726 107.162 96.1193 107.359 96.0126 107.509C95.906 107.658 95.746 107.802 95.5326 107.941C95.266 108.111 94.914 108.266 94.4766 108.405C94.0393 108.554 93.5326 108.629 92.9566 108.629C91.6766 108.629 90.658 108.303 89.9006 107.653C89.154 106.991 88.7806 105.983 88.7806 104.629C88.7806 103.925 88.882 103.322 89.0846 102.821C89.2873 102.309 89.5593 101.887 89.9006 101.557C90.2526 101.226 90.6633 100.981 91.1326 100.821C91.602 100.661 92.1086 100.581 92.6526 100.581C92.9406 100.581 93.2126 100.613 93.4686 100.677C93.7246 100.73 93.954 100.799 94.1566 100.885V97.9887C94.242 97.9567 94.3646 97.93 94.5246 97.9087C94.6953 97.8767 94.8766 97.8607 95.0686 97.8607C95.4526 97.8607 95.73 97.93 95.9006 98.0687C96.082 98.2073 96.1726 98.4527 96.1726 98.8047V106.917ZM94.1566 102.517C93.9966 102.421 93.81 102.341 93.5966 102.277C93.3833 102.213 93.154 102.181 92.9086 102.181C92.3113 102.181 91.8153 102.373 91.4206 102.757C91.026 103.141 90.8286 103.77 90.8286 104.645C90.8286 105.466 91.0153 106.069 91.3886 106.453C91.7726 106.826 92.29 107.013 92.9406 107.013C93.218 107.013 93.4526 106.981 93.6446 106.917C93.8473 106.853 94.018 106.778 94.1566 106.693V102.517ZM99.8748 105.509C100.024 106.053 100.301 106.447 100.707 106.693C101.112 106.938 101.613 107.061 102.211 107.061C102.659 107.061 103.069 106.997 103.443 106.869C103.827 106.73 104.136 106.586 104.371 106.437C104.52 106.522 104.643 106.639 104.739 106.789C104.835 106.938 104.883 107.098 104.883 107.269C104.883 107.482 104.808 107.674 104.659 107.845C104.52 108.005 104.323 108.143 104.067 108.261C103.821 108.378 103.528 108.469 103.187 108.533C102.845 108.597 102.477 108.629 102.083 108.629C101.453 108.629 100.877 108.543 100.355 108.373C99.8428 108.202 99.4001 107.946 99.0268 107.605C98.6641 107.253 98.3761 106.821 98.1628 106.309C97.9601 105.797 97.8588 105.199 97.8588 104.517C97.8588 103.855 97.9601 103.279 98.1628 102.789C98.3654 102.298 98.6374 101.887 98.9788 101.557C99.3308 101.226 99.7361 100.981 100.195 100.821C100.653 100.661 101.139 100.581 101.651 100.581C102.173 100.581 102.653 100.666 103.091 100.837C103.528 100.997 103.901 101.226 104.211 101.525C104.52 101.813 104.76 102.165 104.931 102.581C105.112 102.986 105.203 103.429 105.203 103.909C105.203 104.207 105.123 104.431 104.963 104.581C104.813 104.73 104.6 104.826 104.323 104.869L99.8748 105.509ZM101.651 102.101C101.128 102.101 100.691 102.277 100.339 102.629C99.9868 102.97 99.7894 103.461 99.7468 104.101L103.299 103.573C103.256 103.178 103.101 102.837 102.835 102.549C102.568 102.25 102.173 102.101 101.651 102.101ZM32.2195 122.509C32.2195 122.05 32.0862 121.714 31.8195 121.501C31.5635 121.287 31.2115 121.181 30.7635 121.181C30.4542 121.181 30.1662 121.218 29.8995 121.293C29.6435 121.367 29.4195 121.463 29.2275 121.581V127.373C29.1315 127.394 29.0035 127.421 28.8435 127.453C28.6835 127.485 28.5022 127.501 28.2995 127.501C27.9262 127.501 27.6488 127.431 27.4675 127.293C27.2862 127.154 27.1955 126.909 27.1955 126.557V121.421C27.1955 121.165 27.2488 120.957 27.3555 120.797C27.4622 120.637 27.6275 120.482 27.8515 120.333C28.1608 120.119 28.5715 119.943 29.0835 119.805C29.5955 119.655 30.1608 119.581 30.7795 119.581C31.8782 119.581 32.7262 119.826 33.3235 120.317C33.9315 120.797 34.2355 121.506 34.2355 122.445V127.373C34.1502 127.394 34.0222 127.421 33.8515 127.453C33.6915 127.485 33.5155 127.501 33.3235 127.501C32.9395 127.501 32.6568 127.431 32.4755 127.293C32.3048 127.154 32.2195 126.909 32.2195 126.557V122.509ZM43.7456 123.597C43.7456 124.215 43.6496 124.775 43.4576 125.277C43.2763 125.767 43.015 126.189 42.6736 126.541C42.3323 126.893 41.9216 127.165 41.4416 127.357C40.9616 127.538 40.423 127.629 39.8256 127.629C39.2283 127.629 38.6896 127.538 38.2096 127.357C37.7296 127.165 37.319 126.898 36.9776 126.557C36.6363 126.205 36.3696 125.783 36.1776 125.293C35.9963 124.791 35.9056 124.226 35.9056 123.597C35.9056 122.978 35.9963 122.423 36.1776 121.933C36.3696 121.431 36.6363 121.01 36.9776 120.669C37.3296 120.317 37.7456 120.05 38.2256 119.869C38.7056 119.677 39.239 119.581 39.8256 119.581C40.4123 119.581 40.9456 119.677 41.4256 119.869C41.9056 120.05 42.3163 120.317 42.6576 120.669C43.0096 121.021 43.2763 121.447 43.4576 121.949C43.6496 122.439 43.7456 122.989 43.7456 123.597ZM39.8256 121.181C39.2496 121.181 38.7963 121.394 38.4656 121.821C38.135 122.237 37.9696 122.829 37.9696 123.597C37.9696 124.375 38.1296 124.973 38.4496 125.389C38.7803 125.805 39.239 126.013 39.8256 126.013C40.4123 126.013 40.8656 125.805 41.1856 125.389C41.5163 124.962 41.6816 124.365 41.6816 123.597C41.6816 122.829 41.5163 122.237 41.1856 121.821C40.855 121.394 40.4016 121.181 39.8256 121.181ZM47.4306 125.037C47.4306 125.378 47.532 125.623 47.7346 125.773C47.948 125.922 48.2413 125.997 48.6146 125.997C48.796 125.997 48.9773 125.975 49.1586 125.933C49.3506 125.89 49.5213 125.837 49.6706 125.773C49.756 125.858 49.8253 125.965 49.8786 126.093C49.9426 126.21 49.9746 126.349 49.9746 126.509C49.9746 126.829 49.8306 127.095 49.5426 127.309C49.2546 127.511 48.7906 127.613 48.1506 127.613C47.308 127.613 46.6413 127.426 46.1506 127.053C45.6706 126.669 45.4306 126.039 45.4306 125.165V117.821C45.516 117.799 45.6386 117.773 45.7986 117.741C45.9693 117.709 46.1506 117.693 46.3426 117.693C46.716 117.693 46.988 117.762 47.1586 117.901C47.34 118.039 47.4306 118.285 47.4306 118.637V119.965H49.7826C49.836 120.05 49.884 120.162 49.9266 120.301C49.9693 120.439 49.9906 120.589 49.9906 120.749C49.9906 121.026 49.9266 121.229 49.7986 121.357C49.6706 121.485 49.5 121.549 49.2866 121.549H47.4306V125.037ZM54.5938 126.093C54.9031 126.093 55.1858 126.066 55.4418 126.013C55.6978 125.949 55.8844 125.874 56.0018 125.789V124.013L54.4498 124.157C54.0231 124.199 53.6978 124.295 53.4738 124.445C53.2498 124.583 53.1378 124.807 53.1378 125.117C53.1378 125.426 53.2498 125.666 53.4738 125.837C53.7084 126.007 54.0818 126.093 54.5938 126.093ZM54.5298 119.581C55.5751 119.581 56.4071 119.805 57.0258 120.253C57.6551 120.701 57.9698 121.394 57.9698 122.333V126.029C57.9698 126.285 57.9058 126.487 57.7778 126.637C57.6498 126.786 57.4898 126.919 57.2978 127.037C56.9991 127.218 56.6204 127.362 56.1618 127.469C55.7031 127.575 55.1804 127.629 54.5938 127.629C53.5271 127.629 52.6844 127.426 52.0658 127.021C51.4578 126.605 51.1538 125.986 51.1538 125.165C51.1538 124.45 51.3778 123.906 51.8258 123.533C52.2844 123.149 52.9458 122.914 53.8098 122.829L56.0018 122.605V122.317C56.0018 121.911 55.8524 121.613 55.5538 121.421C55.2658 121.229 54.8551 121.133 54.3218 121.133C53.9058 121.133 53.5004 121.186 53.1058 121.293C52.7111 121.389 52.3591 121.511 52.0498 121.661C51.9324 121.575 51.8311 121.463 51.7458 121.325C51.6711 121.175 51.6338 121.015 51.6338 120.845C51.6338 120.631 51.6818 120.461 51.7778 120.333C51.8844 120.194 52.0498 120.071 52.2738 119.965C52.5831 119.837 52.9351 119.741 53.3298 119.677C53.7244 119.613 54.1244 119.581 54.5298 119.581ZM65.8651 125.245C65.8651 125.991 65.5878 126.578 65.0331 127.005C64.4785 127.421 63.6678 127.629 62.6011 127.629C62.1638 127.629 61.7638 127.597 61.4011 127.533C61.0491 127.469 60.7398 127.378 60.4731 127.261C60.2171 127.133 60.0145 126.983 59.8651 126.813C59.7265 126.631 59.6571 126.434 59.6571 126.221C59.6571 126.018 59.6998 125.842 59.7851 125.693C59.8811 125.543 60.0038 125.421 60.1531 125.325C60.4518 125.517 60.7931 125.687 61.1771 125.837C61.5718 125.986 62.0251 126.061 62.5371 126.061C62.9745 126.061 63.3051 125.991 63.5291 125.853C63.7531 125.703 63.8651 125.501 63.8651 125.245C63.8651 124.807 63.5451 124.519 62.9051 124.381L62.0091 124.173C61.2198 123.991 60.6331 123.719 60.2491 123.357C59.8758 122.994 59.6891 122.509 59.6891 121.901C59.6891 121.207 59.9665 120.647 60.5211 120.221C61.0758 119.783 61.8545 119.565 62.8571 119.565C63.2411 119.565 63.5931 119.597 63.9131 119.661C64.2438 119.714 64.5265 119.799 64.7611 119.917C65.0065 120.023 65.1931 120.157 65.3211 120.317C65.4598 120.466 65.5291 120.642 65.5291 120.845C65.5291 121.037 65.4865 121.207 65.4011 121.357C65.3158 121.495 65.2145 121.607 65.0971 121.693C65.0011 121.629 64.8731 121.565 64.7131 121.501C64.5638 121.437 64.3931 121.378 64.2011 121.325C64.0198 121.271 63.8225 121.229 63.6091 121.197C63.4065 121.154 63.2038 121.133 63.0011 121.133C62.5851 121.133 62.2598 121.202 62.0251 121.341C61.7905 121.469 61.6731 121.655 61.6731 121.901C61.6731 122.082 61.7371 122.231 61.8651 122.349C62.0038 122.466 62.2385 122.562 62.5691 122.637L63.3531 122.829C64.2385 123.031 64.8785 123.33 65.2731 123.725C65.6678 124.109 65.8651 124.615 65.8651 125.245ZM72.6479 120.317H75.5439C75.5972 120.402 75.6452 120.514 75.6879 120.653C75.7305 120.781 75.7519 120.925 75.7519 121.085C75.7519 121.362 75.6879 121.565 75.5599 121.693C75.4319 121.821 75.2612 121.885 75.0479 121.885H72.7439V127.373C72.6479 127.394 72.5199 127.421 72.3599 127.453C72.1999 127.485 72.0185 127.501 71.8159 127.501C71.4425 127.501 71.1652 127.431 70.9839 127.293C70.8025 127.154 70.7119 126.909 70.7119 126.557V119.485C70.7119 118.973 70.7919 118.535 70.9519 118.173C71.1119 117.81 71.3359 117.511 71.6239 117.277C71.9119 117.042 72.2532 116.871 72.6479 116.765C73.0425 116.647 73.4745 116.589 73.9439 116.589C75.3625 116.589 76.0719 116.962 76.0719 117.709C76.0719 117.879 76.0345 118.034 75.9599 118.173C75.8959 118.301 75.8159 118.407 75.7199 118.493C75.5172 118.407 75.2879 118.338 75.0319 118.285C74.7865 118.231 74.5252 118.205 74.2479 118.205C73.6932 118.205 73.2879 118.311 73.0319 118.525C72.7759 118.738 72.6479 119.085 72.6479 119.565V120.317ZM77.3679 119.869C77.4532 119.847 77.5759 119.821 77.7359 119.789C77.9065 119.757 78.0879 119.741 78.2799 119.741C78.6639 119.741 78.9412 119.81 79.1119 119.949C79.2932 120.087 79.3839 120.333 79.3839 120.685V127.373C79.2985 127.394 79.1705 127.421 78.9999 127.453C78.8399 127.485 78.6639 127.501 78.4719 127.501C78.0879 127.501 77.8052 127.431 77.6239 127.293C77.4532 127.154 77.3679 126.909 77.3679 126.557V119.869ZM77.2079 117.549C77.2079 117.239 77.3145 116.978 77.5279 116.765C77.7519 116.541 78.0345 116.429 78.3759 116.429C78.7172 116.429 78.9945 116.541 79.2079 116.765C79.4212 116.978 79.5279 117.239 79.5279 117.549C79.5279 117.869 79.4212 118.141 79.2079 118.365C78.9945 118.578 78.7172 118.685 78.3759 118.685C78.0345 118.685 77.7519 118.578 77.5279 118.365C77.3145 118.141 77.2079 117.869 77.2079 117.549ZM87.3964 125.245C87.3964 125.991 87.119 126.578 86.5644 127.005C86.0097 127.421 85.199 127.629 84.1324 127.629C83.695 127.629 83.295 127.597 82.9324 127.533C82.5804 127.469 82.271 127.378 82.0044 127.261C81.7484 127.133 81.5457 126.983 81.3964 126.813C81.2577 126.631 81.1884 126.434 81.1884 126.221C81.1884 126.018 81.231 125.842 81.3164 125.693C81.4124 125.543 81.535 125.421 81.6844 125.325C81.983 125.517 82.3244 125.687 82.7084 125.837C83.103 125.986 83.5564 126.061 84.0684 126.061C84.5057 126.061 84.8364 125.991 85.0604 125.853C85.2844 125.703 85.3964 125.501 85.3964 125.245C85.3964 124.807 85.0764 124.519 84.4364 124.381L83.5404 124.173C82.751 123.991 82.1644 123.719 81.7804 123.357C81.407 122.994 81.2204 122.509 81.2204 121.901C81.2204 121.207 81.4977 120.647 82.0524 120.221C82.607 119.783 83.3857 119.565 84.3884 119.565C84.7724 119.565 85.1244 119.597 85.4444 119.661C85.775 119.714 86.0577 119.799 86.2924 119.917C86.5377 120.023 86.7244 120.157 86.8524 120.317C86.991 120.466 87.0604 120.642 87.0604 120.845C87.0604 121.037 87.0177 121.207 86.9324 121.357C86.847 121.495 86.7457 121.607 86.6284 121.693C86.5324 121.629 86.4044 121.565 86.2444 121.501C86.095 121.437 85.9244 121.378 85.7324 121.325C85.551 121.271 85.3537 121.229 85.1404 121.197C84.9377 121.154 84.735 121.133 84.5324 121.133C84.1164 121.133 83.791 121.202 83.5564 121.341C83.3217 121.469 83.2044 121.655 83.2044 121.901C83.2044 122.082 83.2684 122.231 83.3964 122.349C83.535 122.466 83.7697 122.562 84.1004 122.637L84.8844 122.829C85.7697 123.031 86.4097 123.33 86.8044 123.725C87.199 124.109 87.3964 124.615 87.3964 125.245ZM93.0061 121.197C92.6861 121.197 92.3875 121.25 92.1101 121.357C91.8435 121.463 91.6088 121.618 91.4061 121.821C91.2141 122.023 91.0595 122.274 90.9421 122.573C90.8248 122.871 90.7661 123.218 90.7661 123.613C90.7661 124.402 90.9741 124.999 91.3901 125.405C91.8061 125.799 92.3448 125.997 93.0061 125.997C93.3795 125.997 93.6995 125.949 93.9661 125.853C94.2435 125.746 94.4888 125.634 94.7021 125.517C94.8515 125.623 94.9688 125.746 95.0541 125.885C95.1501 126.023 95.1981 126.183 95.1981 126.365C95.1981 126.727 94.9848 127.026 94.5581 127.261C94.1315 127.495 93.5555 127.613 92.8301 127.613C92.2221 127.613 91.6621 127.533 91.1501 127.373C90.6488 127.202 90.2168 126.951 89.8541 126.621C89.4915 126.279 89.2088 125.858 89.0061 125.357C88.8141 124.855 88.7181 124.274 88.7181 123.613C88.7181 122.941 88.8248 122.354 89.0381 121.853C89.2515 121.341 89.5395 120.919 89.9021 120.589C90.2755 120.247 90.7075 119.997 91.1981 119.837C91.6888 119.666 92.2115 119.581 92.7661 119.581C93.4808 119.581 94.0515 119.709 94.4781 119.965C94.9048 120.21 95.1181 120.514 95.1181 120.877C95.1181 121.047 95.0701 121.202 94.9741 121.341C94.8888 121.479 94.7875 121.591 94.6701 121.677C94.4568 121.559 94.2168 121.453 93.9501 121.357C93.6941 121.25 93.3795 121.197 93.0061 121.197ZM99.8594 126.093C100.169 126.093 100.451 126.066 100.707 126.013C100.963 125.949 101.15 125.874 101.267 125.789V124.013L99.7154 124.157C99.2887 124.199 98.9634 124.295 98.7394 124.445C98.5154 124.583 98.4034 124.807 98.4034 125.117C98.4034 125.426 98.5154 125.666 98.7394 125.837C98.974 126.007 99.3474 126.093 99.8594 126.093ZM99.7954 119.581C100.841 119.581 101.673 119.805 102.291 120.253C102.921 120.701 103.235 121.394 103.235 122.333V126.029C103.235 126.285 103.171 126.487 103.043 126.637C102.915 126.786 102.755 126.919 102.563 127.037C102.265 127.218 101.886 127.362 101.427 127.469C100.969 127.575 100.446 127.629 99.8594 127.629C98.7927 127.629 97.95 127.426 97.3314 127.021C96.7234 126.605 96.4194 125.986 96.4194 125.165C96.4194 124.45 96.6434 123.906 97.0914 123.533C97.55 123.149 98.2114 122.914 99.0754 122.829L101.267 122.605V122.317C101.267 121.911 101.118 121.613 100.819 121.421C100.531 121.229 100.121 121.133 99.5874 121.133C99.1714 121.133 98.766 121.186 98.3714 121.293C97.9767 121.389 97.6247 121.511 97.3154 121.661C97.198 121.575 97.0967 121.463 97.0114 121.325C96.9367 121.175 96.8994 121.015 96.8994 120.845C96.8994 120.631 96.9474 120.461 97.0434 120.333C97.15 120.194 97.3154 120.071 97.5394 119.965C97.8487 119.837 98.2007 119.741 98.5954 119.677C98.99 119.613 99.39 119.581 99.7954 119.581ZM105.307 119.869C105.392 119.847 105.515 119.821 105.675 119.789C105.845 119.757 106.027 119.741 106.219 119.741C106.603 119.741 106.88 119.81 107.051 119.949C107.232 120.087 107.323 120.333 107.323 120.685V127.373C107.237 127.394 107.109 127.421 106.939 127.453C106.779 127.485 106.603 127.501 106.411 127.501C106.027 127.501 105.744 127.431 105.563 127.293C105.392 127.154 105.307 126.909 105.307 126.557V119.869ZM105.147 117.549C105.147 117.239 105.253 116.978 105.467 116.765C105.691 116.541 105.973 116.429 106.315 116.429C106.656 116.429 106.933 116.541 107.147 116.765C107.36 116.978 107.467 117.239 107.467 117.549C107.467 117.869 107.36 118.141 107.147 118.365C106.933 118.578 106.656 118.685 106.315 118.685C105.973 118.685 105.691 118.578 105.467 118.365C105.253 118.141 105.147 117.869 105.147 117.549ZM115.318 125.245C115.318 125.991 115.041 126.578 114.486 127.005C113.932 127.421 113.121 127.629 112.054 127.629C111.617 127.629 111.217 127.597 110.854 127.533C110.502 127.469 110.193 127.378 109.926 127.261C109.67 127.133 109.468 126.983 109.318 126.813C109.18 126.631 109.11 126.434 109.11 126.221C109.11 126.018 109.153 125.842 109.238 125.693C109.334 125.543 109.457 125.421 109.606 125.325C109.905 125.517 110.246 125.687 110.63 125.837C111.025 125.986 111.478 126.061 111.99 126.061C112.428 126.061 112.758 125.991 112.982 125.853C113.206 125.703 113.318 125.501 113.318 125.245C113.318 124.807 112.998 124.519 112.358 124.381L111.462 124.173C110.673 123.991 110.086 123.719 109.702 123.357C109.329 122.994 109.142 122.509 109.142 121.901C109.142 121.207 109.42 120.647 109.974 120.221C110.529 119.783 111.308 119.565 112.31 119.565C112.694 119.565 113.046 119.597 113.366 119.661C113.697 119.714 113.98 119.799 114.214 119.917C114.46 120.023 114.646 120.157 114.774 120.317C114.913 120.466 114.982 120.642 114.982 120.845C114.982 121.037 114.94 121.207 114.854 121.357C114.769 121.495 114.668 121.607 114.55 121.693C114.454 121.629 114.326 121.565 114.166 121.501C114.017 121.437 113.846 121.378 113.654 121.325C113.473 121.271 113.276 121.229 113.062 121.197C112.86 121.154 112.657 121.133 112.454 121.133C112.038 121.133 111.713 121.202 111.478 121.341C111.244 121.469 111.126 121.655 111.126 121.901C111.126 122.082 111.19 122.231 111.318 122.349C111.457 122.466 111.692 122.562 112.022 122.637L112.806 122.829C113.692 123.031 114.332 123.33 114.726 123.725C115.121 124.109 115.318 124.615 115.318 125.245Z" fill="#3B3C3D"/>
</svg>
